HIERARCHY
ROOT joint_Root
{
  OFFSET 0 0 0
  CHANNELS 6 Xposition Yposition Zposition Zrotation Xrotation Yrotation
  JOINT Hips
  {
    OFFSET 0.847027 93.984 -452.225
    CHANNELS 6 Xposition Yposition Zposition Zrotation Xrotation Yrotation
    JOINT Spine
    {
      OFFSET 15.7357 0 0
      CHANNELS 6 Xposition Yposition Zposition Zrotation Xrotation Yrotation
      JOINT Chest
      {
        OFFSET 8.98455 -0.406207 0
        CHANNELS 6 Xposition Yposition Zposition Zrotation Xrotation Yrotation
        JOINT Neck
        {
          OFFSET 16.3773 0 0
          CHANNELS 6 Xposition Yposition Zposition Zrotation Xrotation Yrotation
          JOINT Head
          {
            OFFSET 6.45672 0 0
            CHANNELS 6 Xposition Yposition Zposition Zrotation Xrotation Yrotation
            End Site
            {
              OFFSET 0 0 0
            }
          }
        }
        JOINT Shoulder_L
        {
          OFFSET 12.9942 -0.242716 4.98039
          CHANNELS 6 Xposition Yposition Zposition Zrotation Xrotation Yrotation
          JOINT UpperArm_L
          {
            OFFSET 5.34809 0 0
            CHANNELS 6 Xposition Yposition Zposition Zrotation Xrotation Yrotation
            JOINT LowerArm_L
            {
              OFFSET 24.3286 1.87007e-05 0
              CHANNELS 6 Xposition Yposition Zposition Zrotation Xrotation Yrotation
              JOINT Hand_L
              {
                OFFSET 22.2916 0 0
                CHANNELS 6 Xposition Yposition Zposition Zrotation Xrotation Yrotation
                End Site
                {
                  OFFSET 0 0 0
                }
              }
            }
          }
        }
        JOINT Shoulder_R
        {
          OFFSET 12.9945 -0.242716 -4.98039
          CHANNELS 6 Xposition Yposition Zposition Zrotation Xrotation Yrotation
          JOINT UpperArm_R
          {
            OFFSET -5.34813 0 0
            CHANNELS 6 Xposition Yposition Zposition Zrotation Xrotation Yrotation
            JOINT LowerArm_R
            {
              OFFSET -24.3289 0.000322201 0
              CHANNELS 6 Xposition Yposition Zposition Zrotation Xrotation Yrotation
              JOINT Hand_R
              {
                OFFSET -22.2915 -0.000108084 0
                CHANNELS 6 Xposition Yposition Zposition Zrotation Xrotation Yrotation
                End Site
                {
                  OFFSET 0 0 0
                }
              }
            }
          }
        }
      }
    }
    JOINT UpperLeg_L
    {
      OFFSET -2.19248 -6.46944 0
      CHANNELS 6 Xposition Yposition Zposition Zrotation Xrotation Yrotation
      JOINT LowerLeg_L
      {
        OFFSET 39.0811 0 -1.23785e-05
        CHANNELS 6 Xposition Yposition Zposition Zrotation Xrotation Yrotation
        JOINT Foot_L
        {
          OFFSET 40.9854 0 -1.26872e-05
          CHANNELS 6 Xposition Yposition Zposition Zrotation Xrotation Yrotation
          JOINT Toes_L
          {
            OFFSET 11.7543 0 0
            CHANNELS 6 Xposition Yposition Zposition Zrotation Xrotation Yrotation
            End Site
            {
              OFFSET 0 0 0
            }
          }
        }
      }
    }
    JOINT UpperLeg_R
    {
      OFFSET -2.19251 6.46944 0
      CHANNELS 6 Xposition Yposition Zposition Zrotation Xrotation Yrotation
      JOINT LowerLeg_R
      {
        OFFSET -39.0811 -0.00228153 -0.0401928
        CHANNELS 6 Xposition Yposition Zposition Zrotation Xrotation Yrotation
        JOINT Foot_R
        {
          OFFSET -40.9854 0 0
          CHANNELS 6 Xposition Yposition Zposition Zrotation Xrotation Yrotation
          JOINT Toes_R
          {
            OFFSET -11.7543 0 0
            CHANNELS 6 Xposition Yposition Zposition Zrotation Xrotation Yrotation
            End Site
            {
              OFFSET 0 0 0
            }
          }
        }
      }
    }
  }
}
MOTION
Frames:	7
Frame Time:	0.0333333
0 0 0 0 0 -0 -2.77907 89.4293 32.715 92.1258 -1.7198 2.10915 15.7357 5.1072e-06 -5.51765e-07 87.8447 83.1644 -87.6479 8.98455 -0.406207 -4.3199e-07 5.89659 -0.516029 0.419699 16.3773 -1.3905e-06 -6.99897e-07 -3.83927 -3.22087 1.76292 6.45672 -1.25837e-06 -1.02172e-07 -9.95654 -2.08739 0.647778 12.9942 -0.242716 4.98039 -90.587 2.30027 -90.6835 5.34809 -7.22636e-06 -6.2814e-07 -69.8109 16.1369 -0.660317 24.3286 1.87007e-05 4.90208e-06 1.0555 1.81973 -30.121 22.2916 -9.88446e-07 4.63217e-06 16.1915 5.53959 -8.22407 12.9945 -0.242716 -4.98039 88.6446 9.43708 -96.7891 -5.34813 -1.25947e-06 -3.79883e-06 -60.2114 14.0041 -2.23088 -24.3289 0.000322201 -8.65921e-06 10.0639 15.1731 -34.143 -22.2915 -0.000108084 -4.47941e-06 10.2556 5.42438 -3.74743 -2.19248 -6.46944 -1.22533e-07 -174.562 -2.36762 -22.2798 39.0811 -6.73843e-06 -1.23785e-05 0.178428 -0.157611 46.957 40.9854 -6.48686e-06 -1.26872e-05 -8.77373 6.85528 -61.9897 11.7543 -2.30145e-07 3.05095e-06 0.0853278 -0.137792 -19.0128 -2.19251 6.46944 -1.45247e-06 176.36 3.09199 155.203 -39.0811 -0.00228153 -0.0401928 0.256042 -0.315764 37.3423 -40.9854 7.72618e-06 5.99936e-06 -0.913048 -1.02153 -63.3436 -11.7543 -5.6619e-06 -5.58687e-06 0.14516 -0.166042 -18.1958 
0 0 0 0 0 -0 -2.41517 89.3918 31.6658 91.5265 -1.63625 2.06781 15.7357 5.1072e-06 -5.51765e-07 86.3235 83.3256 -86.101 8.98455 -0.406207 -4.3199e-07 5.55747 -0.858247 0.485993 16.3773 -1.3905e-06 -6.99897e-07 -3.8103 -3.3707 1.71933 6.45672 -1.25837e-06 -1.02172e-07 -9.80268 -2.15511 0.978515 12.9942 -0.242716 4.98039 -90.5863 2.32386 -90.8365 5.34809 -7.22636e-06 -6.2814e-07 -69.0262 16.7239 -2.08235 24.3286 1.87007e-05 4.90208e-06 0.963667 1.55067 -31.8636 22.2916 -9.88446e-07 4.63217e-06 16.7377 5.54024 -8.25329 12.9945 -0.242716 -4.98039 88.5443 9.61941 -96.3527 -5.34813 -1.25947e-06 -3.79883e-06 -61.0062 14.0706 0.0969936 -24.3289 0.000322201 -8.65921e-06 9.80666 14.9879 -33.7603 -22.2915 -0.000108084 -4.47941e-06 9.82546 5.42459 -3.75469 -2.19248 -6.46944 -1.22534e-07 -174.003 -2.27072 -19.9778 39.0811 -6.73843e-06 -1.23785e-05 0.204786 -0.161655 49.9085 40.9854 -6.48686e-06 -1.26872e-05 -8.90293 9.0776 -63.0258 11.7543 -2.30145e-07 3.05095e-06 0.109834 -0.179915 -19.745 -2.19251 6.46944 -1.45247e-06 176.748 2.98943 154.808 -39.0811 -0.00228153 -0.0401928 0.249246 -0.312704 36.7545 -40.9854 7.72618e-06 5.99936e-06 -1.15122 -1.17141 -63.0773 -11.7543 -5.6619e-06 -5.58687e-06 0.15277 -0.175024 -18.2824 
0 0 0 0 0 -0 -1.91703 89.2293 30.4352 91.0616 -1.54194 1.87919 15.7357 5.1072e-06 -5.51765e-07 84.1045 83.4804 -83.9187 8.98455 -0.406207 -4.3199e-07 5.2075 -1.34059 0.432281 16.3773 -1.3905e-06 -6.99897e-07 -3.82788 -3.53378 1.64717 6.45672 -1.25837e-06 -1.02172e-07 -9.76395 -2.05258 1.26424 12.9942 -0.242716 4.98039 -90.5577 2.2346 -90.9832 5.34809 -7.22636e-06 -6.2814e-07 -68.2265 17.0667 -3.53987 24.3286 1.87007e-05 4.90208e-06 1.15034 1.71795 -33.8108 22.2916 -9.88446e-07 4.63217e-06 17.2279 5.54154 -8.31347 12.9945 -0.242716 -4.98039 88.4645 9.71951 -95.9778 -5.34813 -1.25947e-06 -3.79883e-06 -61.7932 13.6118 2.23337 -24.3289 0.000322201 -8.65921e-06 9.80309 15.1541 -33.466 -22.2915 -0.000108084 -4.47941e-06 9.30122 5.43074 -3.96461 -2.19248 -6.46944 -1.22533e-07 -173.798 -2.19761 -17.8223 39.0811 -6.73843e-06 -1.23785e-05 0.221484 -0.161098 51.8486 40.9854 -6.48686e-06 -1.26872e-05 -8.77026 9.86031 -63.8448 11.7543 -2.30145e-07 3.05095e-06 0.158022 -0.266563 -21.2347 -2.19251 6.46944 -1.45247e-06 176.932 3.04984 153.898 -39.0811 -0.00228153 -0.0401928 0.24924 -0.314001 36.5695 -40.9854 7.72618e-06 5.99936e-06 -1.44693 -1.23476 -62.8397 -11.7543 -5.6619e-06 -5.58687e-06 0.156825 -0.179804 -18.3285 
0 0 0 0 0 -0 -1.32807 88.918 28.9131 90.5691 -1.30067 1.50354 15.7357 5.1072e-06 -5.51765e-07 81.678 83.5815 -81.5464 8.98455 -0.406207 -4.3199e-07 4.94014 -1.85757 0.342905 16.3773 -1.3905e-06 -6.99897e-07 -3.9206 -3.74662 1.62193 6.45672 -1.25837e-06 -1.02172e-07 -9.98815 -1.90398 1.47527 12.9942 -0.242716 4.98039 -90.5126 2.09173 -91.2276 5.34809 -7.22636e-06 -6.2814e-07 -67.1252 17.6112 -5.33847 24.3286 1.87007e-05 4.90208e-06 1.13479 1.56867 -35.887 22.2916 -9.88446e-07 4.63217e-06 17.8571 5.54461 -8.45298 12.9945 -0.242716 -4.98039 88.3619 9.88904 -95.5455 -5.34813 -1.25947e-06 -3.79883e-06 -62.3447 12.9221 4.08743 -24.3289 0.000322201 -8.65921e-06 9.64052 14.9023 -33.4481 -22.2915 -0.000108084 -4.47941e-06 9.12806 5.42704 -3.83757 -2.19248 -6.46944 -1.22534e-07 -173.981 -2.01778 -16.0452 39.0811 -6.73843e-06 -1.23785e-05 0.200288 -0.140411 52.111 40.9854 -6.48686e-06 -1.26872e-05 -5.66338 9.22821 -64.0729 11.7543 -2.30145e-07 3.05095e-06 0.323123 -0.61361 -27.0106 -2.19251 6.46944 -1.45247e-06 177.074 3.17525 152.43 -39.0811 -0.00228153 -0.0401928 0.23473 -0.294228 36.6258 -40.9854 7.72618e-06 5.99936e-06 -1.79991 -1.27798 -62.2823 -11.7543 -5.6619e-06 -5.58687e-06 0.159767 -0.18329 -18.362 
0 0 0 0 0 -0 -0.704682 88.5099 27.0512 89.9372 -0.975809 1.11119 15.7357 5.1072e-06 -5.51765e-07 79.6237 83.5865 -79.5066 8.98455 -0.406207 -4.3199e-07 4.8568 -2.30881 0.331855 16.3773 -1.3905e-06 -6.99897e-07 -4.11104 -3.89554 1.58399 6.45672 -1.25837e-06 -1.02172e-07 -10.3221 -1.88384 1.65665 12.9942 -0.242716 4.98039 -90.4914 2.0468 -91.4955 5.34809 -7.22636e-06 -6.2814e-07 -65.6164 18.4282 -7.75866 24.3286 1.87007e-05 4.90208e-06 1.02982 1.34387 -37.4697 22.2916 -9.88446e-07 4.63217e-06 18.4648 5.54821 -8.62226 12.9945 -0.242716 -4.98039 88.2568 10.0666 -95.1229 -5.34813 -1.25947e-06 -3.79883e-06 -62.6295 12.0891 5.59241 -24.3289 0.000322201 -8.65921e-06 9.58743 14.8636 -33.3668 -22.2915 -0.000108084 -4.47941e-06 9.02471 5.43102 -3.97412 -2.19248 -6.46944 -1.22534e-07 -174.004 -1.72881 -13.881 39.0811 -6.73843e-06 -1.23785e-05 0.13326 -0.0989359 48.4689 40.9854 -6.48686e-06 -1.26872e-05 -2.79106 8.49058 -69.4281 11.7543 -2.30145e-07 3.05095e-06 0.32803 -0.625472 -27.2035 -2.19251 6.46944 -1.45247e-06 177.334 3.29597 150.747 -39.0811 -0.00228153 -0.0401928 0.220288 -0.277287 36.5936 -40.9854 7.72618e-06 5.99936e-06 -2.17454 -1.39614 -61.4437 -11.7543 -5.6619e-06 -5.58687e-06 0.165253 -0.189793 -18.4245 
0 0 0 0 0 -0 0.0297465 88.1144 24.8396 89.7828 -0.425025 0.83893 15.7357 5.1072e-06 -5.51765e-07 77.4936 83.453 -77.5831 8.98455 -0.406207 -4.3199e-07 5.01992 -2.82758 -0.0548321 16.3773 -1.3905e-06 -6.99897e-07 -4.27135 -4.06877 1.71811 6.45672 -1.25837e-06 -1.02172e-07 -10.826 -1.73582 1.80315 12.9942 -0.242716 4.98039 -90.5189 2.20162 -91.7369 5.34809 -7.22636e-06 -6.2814e-07 -63.5013 19.5556 -10.9065 24.3286 1.87007e-05 4.90208e-06 1.00602 1.27523 -38.2749 22.2916 -9.88446e-07 4.63217e-06 19.0465 5.55341 -8.86744 12.9945 -0.242716 -4.98039 88.1023 10.5418 -94.7351 -5.34813 -1.25947e-06 -3.79883e-06 -62.486 11.3405 6.80231 -24.3289 0.000322201 -8.65921e-06 9.58713 14.8015 -33.4741 -22.2915 -0.000108084 -4.47941e-06 8.81717 5.42932 -3.91556 -2.19248 -6.46944 -1.22534e-07 -174.631 -1.80356 -13.5923 39.0811 -6.73843e-06 -1.23785e-05 0.0958683 -0.0728183 45.9453 40.9854 -6.48686e-06 -1.26872e-05 -1.11116 7.46665 -74.2389 11.7543 -2.30145e-07 3.05095e-06 0.196605 -0.340028 -22.4814 -2.19251 6.46944 -1.45247e-06 177.072 3.94227 149.116 -39.0811 -0.00228153 -0.0401928 0.211192 -0.269119 36.3679 -40.9854 7.72618e-06 5.99936e-06 -2.54971 -1.10996 -60.8035 -11.7543 -5.6619e-06 -5.58687e-06 0.173857 -0.200012 -18.5228 
0 0 0 0 0 -0 0.733554 87.7801 22.3897 89.7546 0.500284 0.414084 15.7357 5.1072e-06 -5.51765e-07 75.4764 83.2596 -75.8226 8.98455 -0.406207 -4.3199e-07 5.2811 -3.36577 -0.536475 16.3773 -1.3905e-06 -6.99897e-07 -4.49249 -4.34932 1.99461 6.45672 -1.25837e-06 -1.02172e-07 -11.4437 -1.56643 1.69484 12.9942 -0.242716 4.98039 -90.5272 2.32941 -92.2431 5.34809 -7.22636e-06 -6.2814e-07 -61.0601 20.6746 -14.5847 24.3286 1.87007e-05 4.90208e-06 1.06753 1.35107 -38.3216 22.2916 -9.88446e-07 4.63217e-06 19.4268 5.55482 -8.93517 12.9945 -0.242716 -4.98039 87.9767 10.8611 -94.3808 -5.34813 -1.25947e-06 -3.79883e-06 -62.5924 10.3467 7.55304 -24.3289 0.000322201 -8.65921e-06 9.5262 14.7704 -33.357 -22.2915 -0.000108084 -4.47941e-06 8.84795 5.43001 -3.9391 -2.19248 -6.46944 -1.22534e-07 -175.399 -1.39527 -15.3572 39.0811 -6.73843e-06 -1.23785e-05 0.0829056 -0.0629612 45.5865 40.9854 -6.48686e-06 -1.26872e-05 0.428311 6.52106 -76.2084 11.7543 -2.30145e-07 3.05095e-06 0.111733 -0.183201 -19.802 -2.19251 6.46944 -1.45247e-06 176.767 5.11524 147.555 -39.0811 -0.00228153 -0.0401928 0.202568 -0.267369 35.6977 -40.9854 7.72618e-06 5.99936e-06 -2.89168 -0.836961 -60.581 -11.7543 -5.6619e-06 -5.58687e-06 0.190023 -0.219344 -18.7081 
